<svg xmlns="http://www.w3.org/2000/svg" width="116" height="16" viewBox="0 0 429 57">
    <path fill="rgba(0,0,0,.75)" d="M21.96 47.015q-6.534.001-11.485-2.867-4.952-2.867-7.712-7.892Q-.001 31.231 0 24.822c.001-6.409.92-8.082 2.76-11.434q2.764-5.025 7.713-7.892 4.95-2.866 11.484-2.867 4.849 0 8.823 1.854t6.702 5.194q2.729 3.338 3.67 7.792l-7.476 2.293q-1.01-4.382-4.008-7.048-2.997-2.664-7.711-2.665-4.044 0-7.14 1.854c-2.068 1.236-3.67 2.957-4.816 5.16q-1.718 3.305-1.718 7.76-.001 4.453 1.685 7.758 1.684 3.305 4.782 5.16 3.096 1.854 7.207 1.854 4.578 0 7.913-2.664 3.335-2.663 4.075-7.454l7.476 2.901q-1.684 6.813-6.871 10.726-5.188 3.912-12.596 3.911h.005Zm38.729 0q-4.986 0-8.757-2.226-3.773-2.226-5.893-6.207-2.12-3.977-2.12-9.174c0-5.197.706-6.576 2.12-9.208q2.12-3.947 5.893-6.17 3.771-2.228 8.757-2.227 4.985 0 8.756 2.226 3.773 2.227 5.893 6.171t2.12 9.208c0 3.509-.706 6.52-2.12 9.174q-2.121 3.981-5.893 6.207-3.774 2.227-8.756 2.226m0-7.217q3.839 0 6.264-2.732 2.425-2.73 2.426-7.656-.001-4.923-2.426-7.655-2.423-2.732-6.264-2.732t-6.265 2.732T52 29.41q0 4.924 2.425 7.656 2.423 2.732 6.265 2.732ZM81.434 57V12.547h7.476v5.396c2.246-4.09 5.903-6.137 10.98-6.137q3.973 0 7.24 2.023 3.267 2.026 5.219 5.935 1.953 3.914 1.954 9.646t-1.954 9.647q-1.954 3.911-5.219 5.935-3.269 2.023-7.24 2.023-6.94.001-10.24-4.858h-.136v14.84h-8.083zm16.301-17.202q3.973.001 6.232-2.867 2.255-2.868 2.256-7.52 0-4.653-2.256-7.52-2.257-2.867-6.232-2.868c-2.65 0-4.569.957-6.028 2.867q-2.19 2.868-2.19 7.52 0 4.653 2.19 7.52 2.188 2.87 6.028 2.868M122.86 9.915q-2.29 0-3.703-1.415-1.414-1.416-1.414-3.509c0-2.093.471-2.631 1.414-3.575Q120.57 0 122.86 0q1.953 0 3.368 1.416t1.414 3.575c0 2.159-.471 2.562-1.414 3.509q-1.415 1.415-3.368 1.415m-4.177 36.359V12.547h8.083v33.727zm14.55 0V1.888h8.083v44.384h-8.083zm28.828.741q-4.985 0-8.757-2.226t-5.893-6.207q-2.12-3.977-2.12-9.174c0-5.197.706-6.576 2.12-9.208q2.12-3.947 5.893-6.17 3.772-2.228 8.757-2.227c4.985.001 6.241.741 8.756 2.226q3.773 2.227 5.894 6.171t2.12 9.208c0 3.509-.707 6.52-2.12 9.174q-2.123 3.981-5.894 6.207-3.773 2.227-8.756 2.226m0-7.217q3.838 0 6.264-2.732 2.426-2.73 2.426-7.656 0-4.923-2.426-7.655-2.423-2.732-6.264-2.732t-6.265 2.732-2.425 7.655q0 4.925 2.425 7.656 2.424 2.732 6.265 2.732m34.757 7.217q-5.39 0-8.587-3.203-3.2-3.204-3.199-8.803V19.495h-5.591v-6.948h5.591V4.991h8.083v7.556h11.719v6.948h-11.719v14.976q-.001 2.63.842 3.98.842 1.35 2.864 1.35 2.224-.001 3.334-2.09t.64-5.87l7.141 1.014q.47 6.745-2.492 10.454-2.966 3.71-8.621 3.709zm43.642.982q-7.229.001-12.02-3.587-4.796-3.586-6.44-10.189l8.442-2.725a15 15 0 0 0 1.967 4.196q1.324 1.974 3.472 3.191 2.146 1.22 5.079 1.22 4.508 0 6.405-1.65 1.895-1.651 1.896-4.376 0-2.153-1.396-3.372-1.397-1.219-3.684-1.901a53 53 0 0 0-5.079-1.22 63 63 0 0 1-5.545-1.328q-2.754-.79-5.044-2.152a10.5 10.5 0 0 1-3.684-3.694q-1.395-2.33-1.395-6.061 0-6.24 4.614-9.9c4.614-3.66 7.215-3.658 12.414-3.658q6.081.002 10.374 3.227 4.293 3.228 6.01 9.182l-7.727 2.8q-.93-3.516-2.862-5.418-1.93-1.9-6.154-1.902-3.864 0-5.868 1.58-2.003 1.58-2.003 4.089 0 2.08 1.396 3.265 1.394 1.182 3.684 1.866 2.288.683 5.079 1.22 2.79.539 5.545 1.328 2.755.79 5.044 2.152a10.5 10.5 0 0 1 3.684 3.694q1.395 2.332 1.395 5.99 0 6.53-4.758 10.33-4.76 3.803-12.844 3.803zm38.853 0q-5.224 0-9.337-2.332-4.115-2.333-6.511-6.563-2.398-4.233-2.397-9.829c0-3.729.798-7.21 2.397-10.009q2.396-4.197 6.511-6.457 4.114-2.258 9.337-2.258c3.482 0 6.715.848 9.267 2.548q3.827 2.549 5.795 7.21 1.967 4.663 1.825 10.977h-26.404q.499 4.304 3.113 6.672 2.61 2.369 6.404 2.368 2.86 0 4.973-1.506 2.11-1.506 2.827-4.736l8.442 2.725q-1.718 5.311-5.868 8.252T279.313 48zm0-29.772q-3.293 0-5.724 1.795-2.433 1.794-3.363 5.093h16.814q-.429-3.155-2.718-5.022-2.29-1.866-5.009-1.866m33.627 29.772q-3.507 0-6.655-1.22-3.149-1.218-5.114-3.802-1.967-2.583-1.967-6.672 0-3.514 1.861-6.1 1.86-2.583 5.044-3.982t7.261-1.4q2.289-.001 4.688.322a31 31 0 0 1 4.399.898v-1.078q0-3.3-2.076-5.022-2.076-1.721-5.153-1.721c-2.051 0-3.602.442-4.794 1.328q-1.788 1.33-3.006 3.838l-7.226-3.371q2.075-4.591 5.904-7.03t9.122-2.439q4.509 0 8.086 1.65 3.578 1.653 5.653 4.842 2.075 3.192 2.076 7.928v22.24h-7.941v-5.022h-.144q-.716 2.154-3.434 3.983c-1.815 1.22-4.007 1.83-6.584 1.83m-5.15-11.62q0 2.151 2.04 3.48t5.115 1.329q3.362 0 5.439-1.686 2.075-1.686 2.076-4.411v-2.654a17.7 17.7 0 0 0-3.758-.898 30 30 0 0 0-3.757-.25q-3.435 0-5.294 1.47-1.861 1.471-1.861 3.622zm29.048 10.832V11.337h7.942v5.38q1.717-3.372 4.794-4.952 3.077-1.576 8.015-1.148v8.323q-4.436-.647-7.12.646-2.685 1.292-3.864 3.983-1.18 2.689-1.18 6.422v17.218zm38.854.788q-5.224 0-9.338-2.332-4.114-2.333-6.51-6.563-2.399-4.233-2.397-9.829c0-3.729.797-7.21 2.397-10.009q2.396-4.197 6.51-6.457 4.114-2.258 9.338-2.258 5.937 0 10.374 2.87c2.957 1.912 4.864 4.689 5.724 8.322l-8.227 2.726q-.933-2.943-2.933-4.592-2.004-1.65-4.938-1.65-4.224 0-6.941 2.87-2.72 2.87-2.718 8.178c0 3.538.917 6.206 2.756 8.143q2.756 2.905 6.905 2.905 2.862.001 5.189-1.615 2.325-1.616 3.112-5.344l8.442 2.725c-1.191 3.923-3.245 6.888-6.154 8.896q-4.366 3.013-10.589 3.014zm20.679-.788V0h8.587v16.14a12.36 12.36 0 0 1 3.757-4.017c1.551-1.05 3.733-1.58 6.546-1.58q6.582 0 10.161 3.945Q429 18.435 429 25.822v21.379h-8.586V25.822q0-7.317-6.799-7.319-3.865 0-6.26 2.835-2.399 2.835-2.397 9.937v15.928h-8.587z"/>
</svg>